<svg width="40" height="40" viewBox="0 0 40 40" fill="none" xmlns="http://www.w3.org/2000/svg">
<circle cx="20" cy="20" r="20" fill="white"/>
<circle cx="20" cy="20" r="19.5" stroke="black" stroke-opacity="0.05"/>
<path fill-rule="evenodd" clip-rule="evenodd" d="M20 31.7647C26.4975 31.7647 31.7647 26.4975 31.7647 20C31.7647 13.5025 26.4975 8.23529 20 8.23529C13.5026 8.23529 8.23532 13.5025 8.23532 20C8.23532 26.4975 13.5026 31.7647 20 31.7647ZM11.1615 16.3382C10.9836 16.7758 11.4101 17.1878 11.863 17.0533C17.1834 15.4734 22.8504 15.4734 28.1709 17.0533C28.6237 17.1878 29.0502 16.7758 28.8723 16.3382C27.445 12.8267 24.0178 10.3529 20.0169 10.3529C16.016 10.3529 12.5889 12.8267 11.1615 16.3382ZM10.5977 21.7709C10.5333 21.4251 10.8078 21.1176 11.1596 21.1176H12.5377C15.4254 21.1176 17.7664 23.4586 17.7664 26.3463L17.7664 28.6058C17.7664 28.9863 17.4099 29.2672 17.0481 29.1492C13.7565 28.0756 11.2464 25.2536 10.5977 21.7709ZM28.8414 21.1176C29.1932 21.1176 29.4678 21.4251 29.4033 21.7709C28.7569 25.2414 26.2622 28.0557 22.9876 29.1378C22.6254 29.2574 22.2674 28.9765 22.2674 28.5951V26.3463C22.2674 23.4586 24.6084 21.1176 27.4962 21.1176H28.8414Z" fill="#171A20"/>
</svg>
