<svg width="40" height="40" viewBox="0 0 40 40" fill="none" xmlns="http://www.w3.org/2000/svg">
<circle cx="20" cy="20" r="20" fill="white"/>
<circle cx="20" cy="20" r="19.5" stroke="black" stroke-opacity="0.05"/>
<path d="M9.4118 15.9545V22.4408C9.4118 24.3415 10.9355 25.8824 12.8152 25.8824H27.1849C29.0645 25.8824 30.5883 24.3415 30.5883 22.4408V15.9659C30.5883 15.0963 29.7386 14.4876 28.9274 14.7758C28.5286 14.9175 28.1007 14.9544 27.684 14.8831L26.3447 14.6539C22.2531 13.9536 18.0755 13.9391 13.9793 14.611L12.2823 14.8893C11.8721 14.9566 11.4518 14.9182 11.0602 14.7776C10.2562 14.4889 9.4118 15.0918 9.4118 15.9545ZM16.95 20.8829L17.7167 22.8552C17.9008 23.3288 17.9929 23.5656 17.8803 23.7327C17.7677 23.8997 17.5161 23.8997 17.013 23.8997H15.1435C13.3713 23.8997 12.4853 23.8997 11.9325 23.3458L11.9205 23.3337C11.3727 22.7747 11.3727 21.8985 11.3727 20.1462C11.3727 19.5689 11.3727 19.2803 11.5371 19.1127L11.5407 19.109C11.7065 18.9428 11.9723 18.9428 12.5039 18.9428H14.1345C15.1326 18.9428 15.6316 18.9428 16.017 19.2084C16.4024 19.4739 16.5849 19.9436 16.95 20.8829ZM23.0511 20.8829C23.4163 19.9436 23.5988 19.4739 23.9842 19.2084C24.3696 18.9428 24.8686 18.9428 25.8667 18.9428H27.4972C28.0289 18.9428 28.2947 18.9428 28.4605 19.109L28.4641 19.1127C28.6285 19.2803 28.6285 19.5689 28.6285 20.1462C28.6285 21.8985 28.6285 22.7747 28.0806 23.3337L28.0687 23.3458C27.5159 23.8997 26.6298 23.8997 24.8577 23.8997H22.9882C22.4851 23.8997 22.2335 23.8997 22.1209 23.7327C22.0083 23.5656 22.1004 23.3288 22.2845 22.8552L23.0511 20.8829Z" fill="#0C0C0C"/>
</svg>
